<?xml version="1.0" encoding="UTF-8"?>
<svg width="189px" height="55px" viewBox="0 0 189 55" version="1.1" xmlns="http://www.w3.org/2000/svg">
    <g fill="#28a745" fill-rule="nonzero">
        <path d="M10,10 L20,10 L20,45 L10,45 Z"/>
        <path d="M25,10 L60,10 C65,10 70,15 70,20 C70,25 65,30 60,30 L25,30 Z"/>
        <path d="M25,35 L60,35 C65,35 70,40 70,45 L25,45 Z"/>
        <path d="M75,10 L85,10 L85,45 L75,45 Z"/>
        <path d="M90,10 L130,10 L130,20 L90,20 Z"/>
        <path d="M90,30 L130,30 L130,45 L90,45 Z"/>
        <path d="M135,10 L145,10 L145,45 L135,45 Z"/>
        <path d="M150,10 L175,10 L185,27.5 L175,45 L150,45 L160,27.5 Z"/>
    </g>
</svg> 